<?xml version="1.0"?>
<svg xmlns="http://www.w3.org/2000/svg" xmlns:xlink="http://www.w3.org/1999/xlink" xmlns:svgjs="http://svgjs.com/svgjs" version="1.1" width="512" height="512" x="0" y="0" viewBox="0 0 512 512" style="enable-background:new 0 0 512 512" xml:space="preserve" class=""><g><path xmlns="http://www.w3.org/2000/svg" d="m464 226.009c0-25.928 2.259-72.889-30.388-126.329-81.755-133.771-274.593-131.996-355.226.003-30.966 50.692-30.386 94.334-30.386 126.326-27.573 7.123-48 32.208-48 61.975v80c0 35.29 28.71 64 64 64h32c0 8.837 7.163 16 16 16s16-7.163 16-16c0-6.322 0-185.017 0-208 0-8.837-7.163-16-16-16s-16 7.163-16 16h-16c0-23.869-1.164-54.11 17.633-92.833 21.612 9.983 48.543 6.185 66.585-12.38 50.276-51.726 132.252-51.329 182.289-1.294 11.967 11.994 25.264 18.926 42.825 19.056 8.793.058 17.27-1.788 25.037-5.379 18.848 38.831 17.631 69.815 17.631 92.829h-16c0-8.837-7.163-16-16-16s-16 7.163-16 16v208c0 8.837 7.163 16 16 16s16-7.163 16-16h13.975c-7.123 27.573-32.208 48-61.975 48h-64c0-17.645-14.355-32-32-32s-32 14.355-32 32 14.355 32 32 32h96c48.104 0 88.053-35.564 94.945-81.78 28.102-6.751 49.055-32.077 49.055-62.22v-80c0-29.767-20.427-54.852-48-61.974zm-368 173.974h-32c-17.645 0-32-14.355-32-32v-80c0-17.645 14.355-32 32-32h32zm274.798-303.444c-62.561-64.446-166.333-65.089-229.527-.071-7.152 7.359-17.536 9.726-26.83 6.909 67.351-91.37 202.092-95.745 275.604-9.417 4.558 5.349 7.427 9.325 7.511 9.426-9.183 2.784-19.575.55-26.758-6.847zm109.202 271.444c0 11.818-6.445 22.153-16 27.695v-59.695c0-8.837-7.163-16-16-16s-16 7.163-16 16v64h-16v-144h32c17.645 0 32 14.355 32 32z" fill="#bbbbbb" data-original="#000000" style="" class=""/></g></svg>
