<?xml version="1.0"?>
<svg xmlns="http://www.w3.org/2000/svg" xmlns:xlink="http://www.w3.org/1999/xlink" xmlns:svgjs="http://svgjs.com/svgjs" version="1.1" width="512" height="512" x="0" y="0" viewBox="0 0 392.62 392.62" style="enable-background:new 0 0 512 512" xml:space="preserve" class=""><g>
<g xmlns="http://www.w3.org/2000/svg">
	<path d="M310.725,0.93H81.896C36.739,0.93,0,37.668,0,82.825v226.969c0,45.158,36.739,81.896,81.896,81.896h228.828   c45.157,0,81.896-36.738,81.896-81.896V82.825C392.62,37.668,355.882,0.93,310.725,0.93z M362.62,309.794   c0,28.616-23.28,51.896-51.896,51.896H81.896C53.281,361.69,30,338.41,30,309.794V82.825C30,54.21,53.281,30.93,81.896,30.93   h228.828c28.615,0,51.896,23.28,51.896,51.896V309.794z" fill="#bbbbbb" data-original="#000000" style="" class=""/>
	<rect x="104.93" y="288.447" width="182.761" height="30" fill="#bbbbbb" data-original="#000000" style="" class=""/>
	<path d="M203.365,81.919h-7.722l-62.797,154.027c-3.482,8.461-6.423,13.853-8.826,16.174c-2.403,2.322-7.031,3.482-13.884,3.482   h-5.206v8.677h57.672v-8.677h-9.885c-8.907,0-13.361-2.368-13.361-7.103c0-3.304,1.498-8.606,4.497-15.905l7.551-18.377h56.372   l15.724,41.385h-23.919v8.677h88.11v-8.677h-18.556L203.365,81.919z M155.188,205.006l25.502-62.077l23.585,62.077H155.188z" fill="#bbbbbb" data-original="#000000" style="" class=""/>
	<path d="M104.93,156.159c0-4.476-5.411-6.717-8.576-3.552l-18.708,18.708c-1.962,1.962-1.962,5.143,0,7.105l18.708,18.708   c3.165,3.165,8.576,0.923,8.576-3.552V156.159z" fill="#bbbbbb" data-original="#000000" style="" class=""/>
	<path d="M296.267,152.607c-3.165-3.165-8.576-0.923-8.576,3.552v37.416c0,4.476,5.411,6.717,8.576,3.552l18.708-18.708   c1.962-1.962,1.962-5.143,0-7.105L296.267,152.607z" fill="#bbbbbb" data-original="#000000" style="" class=""/>
</g>
<g xmlns="http://www.w3.org/2000/svg">
</g>
<g xmlns="http://www.w3.org/2000/svg">
</g>
<g xmlns="http://www.w3.org/2000/svg">
</g>
<g xmlns="http://www.w3.org/2000/svg">
</g>
<g xmlns="http://www.w3.org/2000/svg">
</g>
<g xmlns="http://www.w3.org/2000/svg">
</g>
<g xmlns="http://www.w3.org/2000/svg">
</g>
<g xmlns="http://www.w3.org/2000/svg">
</g>
<g xmlns="http://www.w3.org/2000/svg">
</g>
<g xmlns="http://www.w3.org/2000/svg">
</g>
<g xmlns="http://www.w3.org/2000/svg">
</g>
<g xmlns="http://www.w3.org/2000/svg">
</g>
<g xmlns="http://www.w3.org/2000/svg">
</g>
<g xmlns="http://www.w3.org/2000/svg">
</g>
<g xmlns="http://www.w3.org/2000/svg">
</g>
</g></svg>
